#!OML:ASF F:\VICON\USERDATA\INSTALL\rory3\rory3.ASF
:FULLY-SPECIFIED
:DEGREES
1233
root -1.44497 18.9288 4.66785 -661.354 -85.2477 662.839
lowerback 3.29217 5.34859 -0.0831002
upperback -9.00972 6.66294 -3.44836
thorax -11.0667 2.95699 -4.48028
lowerneck -5.21719 -12.2551 -26.5616
upperneck -11.9403 -14.6536 16.3508
head 0.443101 -6.77974 8.59178
rclavicle -2.66371e-014 1.27222e-014
rhumerus 66.9508 -15.5608 -11.7034
rradius 31.9733
rwrist 7.67319
rhand -8.87539 -1.08838
rfingers 7.12502
rthumb 17.0664 -30.3587
lclavicle -2.66371e-014 1.27222e-014
lhumerus 20.608 -9.40855 37.6794
lradius 120.971
lwrist 13.0639
lhand -23.0133 29.2234
lfingers 7.12502
lthumb 3.43029 59.1756
rfemur -8.20678 -1.42077 22.104
rtibia 33.0631
rfoot 5.59989 -12.3658
rtoes 8.55279
lfemur -14.93 -1.78197 -11.2617
ltibia 38.4376
lfoot 18.6691 2.48302
ltoes -25.2725
1234
root -1.43545 18.8861 4.67669 -662.205 -85.3325 663.475
lowerback 3.10223 3.41955 0.244657
upperback -6.31784 4.0778 -5.09423
thorax -7.9937 1.73425 -5.92397
lowerneck -17.173 -11.2256 -13.4332
upperneck -10.2359 -12.7502 12.4611
head 1.24949 -5.99896 5.04273
rclavicle 3.29983e-014 -1.90833e-014
rhumerus 72.5826 -19.471 -22.3659
rradius 30.6008
rwrist 11.2314
rhand -8.47289 0.0417492
rfingers 7.12502
rthumb 17.4538 -29.1947
lclavicle 3.29983e-014 -1.90833e-014
lhumerus 27.0816 1.06182 29.8988
lradius 118.177
lwrist 14.2918
lhand -23.4565 28.6275
lfingers 7.12502
lthumb 3.00229 58.5861
rfemur -8.12141 -1.49191 21.8658
rtibia 33.532
rfoot 5.42095 -11.1111
rtoes 7.5703
lfemur -14.5048 -1.87271 -11.4197
ltibia 38.3468
lfoot 17.5665 2.70346
ltoes -26.133
1235
root -1.42561 18.8495 4.69151 -661.774 -85.2811 662.76
lowerback 3.37515 3.03892 0.265043
upperback -6.14935 3.57785 -5.0202
thorax -8.02381 1.4922 -5.82162
lowerneck -17.9445 -10.5683 -11.834
upperneck -10.3531 -12.1073 11.944
head 1.12048 -5.72934 4.69131
rclavicle -9.93923e-015 -1.90833e-014
rhumerus 72.7373 -18.5722 -23.1515
rradius 31.137
rwrist 11.3036
rhand -8.22026 0.550573
rfingers 7.12502
rthumb 17.6969 -28.6641
lclavicle -9.93923e-015 -1.90833e-014
lhumerus 30.4528 5.20609 27.6848
lradius 115.561
lwrist 14.3702
lhand -24.2845 29.0265
lfingers 7.12502
lthumb 2.20255 58.9949
rfemur -7.93085 -1.64784 21.8087
rtibia 33.8992
rfoot 5.30416 -10.1362
rtoes 7.15485
lfemur -13.9469 -1.97399 -11.4044
ltibia 38.3354
lfoot 16.1546 2.65155
ltoes -27.173
1236
root -1.41778 18.8196 4.71217 -661.342 -85.1488 662.114
lowerback 3.53256 2.53285 0.402716
upperback -6.03262 2.90372 -5.07235
thorax -8.04802 1.14955 -5.89692
lowerneck -18.7419 -9.81012 -9.8259
upperneck -10.3676 -11.4433 11.4744
head 1.0196 -5.4643 4.28527
rclavicle -1.55052e-014 2.38542e-014
rhumerus 72.8756 -17.581 -24.3497
rradius 31.8627
rwrist 11.3618
rhand -8.08578 1.04871
rfingers 7.12502
rthumb 17.8263 -28.1542
lclavicle -1.55052e-014 2.38542e-014
lhumerus 33.5857 9.10448 25.2965
lradius 112.44
lwrist 13.7314
lhand -24.7085 28.984
lfingers 7.12502
lthumb 1.79311 58.9562
rfemur -7.78328 -2.00987 21.7855
rtibia 34.1873
rfoot 5.30619 -9.35102
rtoes 6.8847
lfemur -13.4516 -2.05244 -11.348
ltibia 38.359
lfoot 14.8444 1.95883
ltoes -28.7668
1237
root -1.41207 18.8013 4.73671 -660.355 -85.1387 660.985
lowerback 3.63048 2.49495 0.38254
upperback -6.02711 2.88337 -4.73905
thorax -8.11623 1.15565 -5.53111
lowerneck -18.7024 -9.92962 -10.3564
upperneck -10.4773 -11.4974 11.7268
head 1.03319 -5.47334 4.44144
rclavicle 2.94201e-014 -2.8625e-014
rhumerus 71.9425 -16.6625 -23.2616
rradius 33.082
rwrist 10.9962
rhand -8.04486 1.39319
rfingers 7.12502
rthumb 17.8657 -27.8062
lclavicle 2.94201e-014 -2.8625e-014
lhumerus 37.0103 11.9661 24.7572
lradius 108.799
lwrist 12.4358
lhand -25.3143 28.9248
lfingers 7.12502
lthumb 1.20799 58.9011
rfemur -7.74024 -2.49873 21.681
rtibia 34.4482
rfoot 5.6842 -8.48855
rtoes 5.54164
lfemur -13.0429 -2.26552 -11.4068
ltibia 38.3749
lfoot 13.7902 1.78246
ltoes -30.2535
1238
root -1.41172 18.7917 4.76033 -659.189 -85.3624 659.691
lowerback 3.64398 2.49581 0.0335398
upperback -5.98164 2.89177 -4.39092
thorax -8.10544 1.19859 -4.96002
lowerneck -18.8892 -10.0166 -10.8787
upperneck -10.4992 -11.4937 11.8916
head 1.09057 -5.44856 4.56559
rclavicle -2.74323e-014 1.11319e-014
rhumerus 71.0325 -15.8398 -22.1897
rradius 34.4931
rwrist 10.9066
rhand -8.06891 1.78633
rfingers 7.12502
rthumb 17.8425 -27.4152
lclavicle -2.74323e-014 1.11319e-014
lhumerus 40.3097 14.5947 24.4661
lradius 104.918
lwrist 10.8786
lhand -26.1953 29.6854
lfingers 7.12502
lthumb 0.357099 59.6649
rfemur -7.73873 -2.75646 21.3956
rtibia 34.7373
rfoot 5.91285 -7.88195
rtoes 5.05938
lfemur -12.593 -2.57091 -11.7141
ltibia 38.3126
lfoot 12.8852 2.41069
ltoes -30.8227
